<svg width="1767" height="553" viewBox="0 0 1767 553" fill="none" xmlns="http://www.w3.org/2000/svg">
<path d="M503.722 462.709V408.664L290.624 500.991H265.95L53.5226 461.394L265.95 552.784H292.867L503.722 462.709Z" fill="black"/>
<path d="M293.117 552.753H290.874L266.2 500.96L6.82959 448.262H-6.10352e-05L266.2 552.753H293.117Z" fill="black"/>
<path d="M504 0L48.2257 83.7813V173.651L503.764 90.5586L504 0Z" fill="black"/>
<path d="M504 136.328L48.2257 220.109V309.979L503.764 226.887L504 136.328Z" fill="black"/>
<path d="M504 274.314L48.2257 358.325V440.456L503.761 355.476L504 274.314Z" fill="black"/>
<path d="M583.75 276C582.083 276 580.583 275.417 579.25 274.25C578.083 273.083 577.5 271.583 577.5 269.75V107.25C577.5 105.417 578.083 103.917 579.25 102.75C580.583 101.583 582.083 101 583.75 101H610.75C613.417 101 615.417 101.75 616.75 103.25C618.25 104.583 619.167 105.667 619.5 106.5L663.5 185.5L707.5 106.5C708 105.667 708.833 104.583 710 103.25C711.333 101.75 713.417 101 716.25 101H743C744.833 101 746.333 101.583 747.5 102.75C748.833 103.917 749.5 105.417 749.5 107.25V269.75C749.5 271.583 748.833 273.083 747.5 274.25C746.333 275.417 744.833 276 743 276H713.25C711.417 276 709.833 275.417 708.5 274.25C707.333 273.083 706.75 271.583 706.75 269.75V176L678.5 228.25C677.833 229.75 676.833 231.083 675.5 232.25C674.167 233.417 672.333 234 670 234H657C654.667 234 652.833 233.417 651.5 232.25C650.167 231.083 649.083 229.75 648.25 228.25L620 176V269.75C620 271.583 619.417 273.083 618.25 274.25C617.083 275.417 615.583 276 613.75 276H583.75ZM774.287 276C772.954 276 771.704 275.5 770.537 274.5C769.537 273.333 769.037 272.083 769.037 270.75C769.037 269.917 769.12 269.167 769.287 268.5L828.037 108C828.537 106.167 829.537 104.583 831.037 103.25C832.704 101.75 834.954 101 837.787 101H874.787C877.62 101 879.787 101.75 881.287 103.25C882.954 104.583 884.037 106.167 884.537 108L943.037 268.5C943.37 269.167 943.537 269.917 943.537 270.75C943.537 272.083 942.954 273.333 941.787 274.5C940.787 275.5 939.537 276 938.037 276H907.287C904.787 276 902.87 275.417 901.537 274.25C900.37 272.917 899.62 271.75 899.287 270.75L889.537 245.25H822.787L813.287 270.75C812.954 271.75 812.204 272.917 811.037 274.25C809.87 275.417 807.87 276 805.037 276H774.287ZM833.037 209.25H879.537L856.037 143.25L833.037 209.25ZM969.492 276C967.659 276 966.159 275.417 964.992 274.25C963.826 273.083 963.242 271.583 963.242 269.75V107.25C963.242 105.417 963.826 103.917 964.992 102.75C966.159 101.583 967.659 101 969.492 101H1037.49C1058.99 101 1075.91 106 1088.24 116C1100.74 125.833 1106.99 139.833 1106.99 158C1106.99 169.833 1104.08 179.833 1098.24 188C1092.58 196.167 1085.08 202.333 1075.74 206.5L1110.24 268C1110.74 269 1110.99 269.917 1110.99 270.75C1110.99 272.083 1110.41 273.333 1109.24 274.5C1108.24 275.5 1106.99 276 1105.49 276H1072.49C1069.33 276 1066.99 275.25 1065.49 273.75C1063.99 272.083 1062.91 270.583 1062.24 269.25L1033.74 214.25H1007.99V269.75C1007.99 271.583 1007.41 273.083 1006.24 274.25C1005.08 275.417 1003.58 276 1001.74 276H969.492ZM1007.99 179H1036.99C1044.83 179 1050.66 177.083 1054.49 173.25C1058.49 169.417 1060.49 164.167 1060.49 157.5C1060.49 151 1058.58 145.75 1054.74 141.75C1051.08 137.75 1045.16 135.75 1036.99 135.75H1007.99V179ZM1142.34 276C1140.51 276 1139.01 275.417 1137.84 274.25C1136.68 273.083 1136.09 271.583 1136.09 269.75V107.25C1136.09 105.417 1136.68 103.917 1137.84 102.75C1139.01 101.583 1140.51 101 1142.34 101H1175.34C1177.01 101 1178.43 101.583 1179.59 102.75C1180.93 103.917 1181.59 105.417 1181.59 107.25V238.25H1257.09C1258.93 238.25 1260.43 238.917 1261.59 240.25C1262.93 241.417 1263.59 242.917 1263.59 244.75V269.75C1263.59 271.583 1262.93 273.083 1261.59 274.25C1260.43 275.417 1258.93 276 1257.09 276H1142.34ZM1291.51 276C1289.68 276 1288.18 275.417 1287.01 274.25C1285.85 273.083 1285.26 271.583 1285.26 269.75V107.25C1285.26 105.417 1285.85 103.917 1287.01 102.75C1288.18 101.583 1289.68 101 1291.51 101H1408.26C1410.1 101 1411.6 101.583 1412.76 102.75C1413.93 103.917 1414.51 105.417 1414.51 107.25V130.75C1414.51 132.583 1413.93 134.083 1412.76 135.25C1411.6 136.417 1410.1 137 1408.26 137H1328.51V170.75H1402.76C1404.6 170.75 1406.1 171.417 1407.26 172.75C1408.43 173.917 1409.01 175.417 1409.01 177.25V199C1409.01 200.667 1408.43 202.167 1407.26 203.5C1406.1 204.667 1404.6 205.25 1402.76 205.25H1328.51V240H1410.26C1412.1 240 1413.6 240.583 1414.76 241.75C1415.93 242.917 1416.51 244.417 1416.51 246.25V269.75C1416.51 271.583 1415.93 273.083 1414.76 274.25C1413.6 275.417 1412.1 276 1410.26 276H1291.51ZM1451.18 276C1449.35 276 1447.85 275.417 1446.68 274.25C1445.51 273.083 1444.93 271.583 1444.93 269.75V107.25C1444.93 105.417 1445.51 103.917 1446.68 102.75C1447.85 101.583 1449.35 101 1451.18 101H1567.93C1569.76 101 1571.26 101.583 1572.43 102.75C1573.6 103.917 1574.18 105.417 1574.18 107.25V130.75C1574.18 132.583 1573.6 134.083 1572.43 135.25C1571.26 136.417 1569.76 137 1567.93 137H1488.18V170.75H1562.43C1564.26 170.75 1565.76 171.417 1566.93 172.75C1568.1 173.917 1568.68 175.417 1568.68 177.25V199C1568.68 200.667 1568.1 202.167 1566.93 203.5C1565.76 204.667 1564.26 205.25 1562.43 205.25H1488.18V240H1569.93C1571.76 240 1573.26 240.583 1574.43 241.75C1575.6 242.917 1576.18 244.417 1576.18 246.25V269.75C1576.18 271.583 1575.6 273.083 1574.43 274.25C1573.26 275.417 1571.76 276 1569.93 276H1451.18ZM1610.85 276C1609.02 276 1607.52 275.417 1606.35 274.25C1605.18 273.083 1604.6 271.583 1604.6 269.75V107.25C1604.6 105.417 1605.18 103.917 1606.35 102.75C1607.52 101.583 1609.02 101 1610.85 101H1637.35C1640.18 101 1642.18 101.667 1643.35 103C1644.68 104.167 1645.52 105.083 1645.85 105.75L1706.85 202V107.25C1706.85 105.417 1707.43 103.917 1708.6 102.75C1709.77 101.583 1711.27 101 1713.1 101H1743.1C1744.93 101 1746.43 101.583 1747.6 102.75C1748.77 103.917 1749.35 105.417 1749.35 107.25V269.75C1749.35 271.417 1748.77 272.917 1747.6 274.25C1746.43 275.417 1744.93 276 1743.1 276H1716.35C1713.68 276 1711.68 275.333 1710.35 274C1709.18 272.667 1708.43 271.75 1708.1 271.25L1647.1 178.75V269.75C1647.1 271.583 1646.52 273.083 1645.35 274.25C1644.18 275.417 1642.68 276 1640.85 276H1610.85Z" fill="black"/>
<path d="M587.425 393C586.875 393 586.425 392.825 586.075 392.475C585.725 392.125 585.55 391.675 585.55 391.125V342.375C585.55 341.825 585.725 341.375 586.075 341.025C586.425 340.675 586.875 340.5 587.425 340.5H595.9C596.45 340.5 596.9 340.675 597.25 341.025C597.6 341.375 597.775 341.825 597.775 342.375V391.125C597.775 391.675 597.6 392.125 597.25 392.475C596.9 392.825 596.45 393 595.9 393H587.425ZM651.966 393C651.466 393 651.016 392.825 650.616 392.475C650.266 392.125 650.091 391.675 650.091 391.125V342.375C650.091 341.825 650.266 341.375 650.616 341.025C651.016 340.675 651.466 340.5 651.966 340.5H658.941C659.691 340.5 660.241 340.7 660.591 341.1C660.991 341.5 661.266 341.8 661.416 342L675.216 367.425L689.166 342C689.266 341.8 689.491 341.5 689.841 341.1C690.241 340.7 690.816 340.5 691.566 340.5H698.541C699.091 340.5 699.541 340.675 699.891 341.025C700.241 341.375 700.416 341.825 700.416 342.375V391.125C700.416 391.675 700.241 392.125 699.891 392.475C699.541 392.825 699.091 393 698.541 393H690.891C690.391 393 689.966 392.825 689.616 392.475C689.266 392.125 689.091 391.675 689.091 391.125V360.825L679.566 378.675C679.316 379.125 678.991 379.525 678.591 379.875C678.191 380.225 677.666 380.4 677.016 380.4H673.491C672.841 380.4 672.316 380.225 671.916 379.875C671.516 379.525 671.191 379.125 670.941 378.675L661.416 360.825V391.125C661.416 391.675 661.241 392.125 660.891 392.475C660.541 392.825 660.116 393 659.616 393H651.966ZM754.666 393C754.116 393 753.666 392.825 753.316 392.475C752.966 392.125 752.791 391.675 752.791 391.125V342.375C752.791 341.825 752.966 341.375 753.316 341.025C753.666 340.675 754.116 340.5 754.666 340.5H775.141C779.191 340.5 782.691 341.125 785.641 342.375C788.641 343.625 790.966 345.525 792.616 348.075C794.316 350.575 795.166 353.7 795.166 357.45C795.166 361.25 794.316 364.4 792.616 366.9C790.966 369.35 788.641 371.175 785.641 372.375C782.691 373.575 779.191 374.175 775.141 374.175H765.091V391.125C765.091 391.675 764.916 392.125 764.566 392.475C764.216 392.825 763.766 393 763.216 393H754.666ZM764.866 364.875H774.766C777.316 364.875 779.291 364.25 780.691 363C782.141 361.75 782.866 359.875 782.866 357.375C782.866 355.175 782.216 353.375 780.916 351.975C779.666 350.575 777.616 349.875 774.766 349.875H764.866V364.875ZM845.941 393C845.391 393 844.941 392.825 844.591 392.475C844.241 392.125 844.066 391.675 844.066 391.125V342.375C844.066 341.825 844.241 341.375 844.591 341.025C844.941 340.675 845.391 340.5 845.941 340.5H865.816C872.066 340.5 876.991 341.95 880.591 344.85C884.191 347.7 885.991 351.825 885.991 357.225C885.991 360.875 885.116 363.925 883.366 366.375C881.616 368.825 879.266 370.65 876.316 371.85L886.891 390.6C887.041 390.9 887.116 391.175 887.116 391.425C887.116 391.825 886.966 392.2 886.666 392.55C886.366 392.85 885.991 393 885.541 393H877.216C876.316 393 875.641 392.775 875.191 392.325C874.741 391.825 874.416 391.375 874.216 390.975L865.066 373.8H855.991V391.125C855.991 391.675 855.816 392.125 855.466 392.475C855.116 392.825 854.666 393 854.116 393H845.941ZM855.991 364.275H865.591C868.341 364.275 870.366 363.65 871.666 362.4C873.016 361.15 873.691 359.4 873.691 357.15C873.691 354.9 873.041 353.125 871.741 351.825C870.441 350.525 868.391 349.875 865.591 349.875H855.991V364.275ZM938.314 393C937.764 393 937.314 392.825 936.964 392.475C936.614 392.125 936.439 391.675 936.439 391.125V342.375C936.439 341.825 936.614 341.375 936.964 341.025C937.314 340.675 937.764 340.5 938.314 340.5H972.289C972.839 340.5 973.289 340.675 973.639 341.025C973.989 341.375 974.164 341.825 974.164 342.375V348.375C974.164 348.875 973.989 349.3 973.639 349.65C973.289 350 972.839 350.175 972.289 350.175H947.989V361.95H970.639C971.189 361.95 971.639 362.125 971.989 362.475C972.339 362.825 972.514 363.275 972.514 363.825V369.375C972.514 369.875 972.339 370.3 971.989 370.65C971.639 371 971.189 371.175 970.639 371.175H947.989V383.325H972.889C973.439 383.325 973.889 383.5 974.239 383.85C974.589 384.2 974.764 384.65 974.764 385.2V391.125C974.764 391.675 974.589 392.125 974.239 392.475C973.889 392.825 973.439 393 972.889 393H938.314ZM1043.83 393.75C1039.03 393.75 1035 393.05 1031.75 391.65C1028.55 390.25 1026.13 388.425 1024.48 386.175C1022.83 383.925 1021.95 381.525 1021.85 378.975C1021.85 378.575 1022 378.225 1022.3 377.925C1022.6 377.575 1022.98 377.4 1023.43 377.4H1031.45C1032.1 377.4 1032.6 377.55 1032.95 377.85C1033.3 378.1 1033.63 378.425 1033.93 378.825C1034.28 379.675 1034.83 380.5 1035.58 381.3C1036.38 382.1 1037.45 382.775 1038.8 383.325C1040.15 383.825 1041.83 384.075 1043.83 384.075C1047.08 384.075 1049.5 383.55 1051.1 382.5C1052.75 381.45 1053.58 380.025 1053.58 378.225C1053.58 376.925 1053.13 375.875 1052.23 375.075C1051.38 374.275 1050 373.55 1048.1 372.9C1046.25 372.25 1043.78 371.55 1040.68 370.8C1036.93 370 1033.73 368.975 1031.08 367.725C1028.48 366.425 1026.5 364.775 1025.15 362.775C1023.85 360.725 1023.2 358.2 1023.2 355.2C1023.2 352.2 1024.03 349.55 1025.68 347.25C1027.33 344.9 1029.65 343.075 1032.65 341.775C1035.65 340.425 1039.23 339.75 1043.38 339.75C1046.73 339.75 1049.68 340.2 1052.23 341.1C1054.83 342 1056.98 343.175 1058.68 344.625C1060.43 346.075 1061.75 347.625 1062.65 349.275C1063.55 350.925 1064.03 352.525 1064.08 354.075C1064.08 354.475 1063.93 354.85 1063.63 355.2C1063.33 355.5 1062.95 355.65 1062.5 355.65H1054.1C1053.6 355.65 1053.15 355.55 1052.75 355.35C1052.35 355.15 1052.03 354.8 1051.78 354.3C1051.48 353 1050.58 351.875 1049.08 350.925C1047.63 349.925 1045.73 349.425 1043.38 349.425C1040.93 349.425 1038.98 349.875 1037.53 350.775C1036.13 351.675 1035.43 353.05 1035.43 354.9C1035.43 356.1 1035.78 357.125 1036.48 357.975C1037.23 358.775 1038.45 359.5 1040.15 360.15C1041.9 360.75 1044.2 361.425 1047.05 362.175C1051.45 363.075 1055.03 364.15 1057.78 365.4C1060.53 366.65 1062.55 368.275 1063.85 370.275C1065.15 372.225 1065.8 374.7 1065.8 377.7C1065.8 381.05 1064.85 383.925 1062.95 386.325C1061.1 388.725 1058.53 390.575 1055.23 391.875C1051.98 393.125 1048.18 393.75 1043.83 393.75ZM1116.98 393C1116.43 393 1115.98 392.825 1115.63 392.475C1115.28 392.125 1115.11 391.675 1115.11 391.125V342.375C1115.11 341.825 1115.28 341.375 1115.63 341.025C1115.98 340.675 1116.43 340.5 1116.98 340.5H1125.46C1126.01 340.5 1126.46 340.675 1126.81 341.025C1127.16 341.375 1127.33 341.825 1127.33 342.375V391.125C1127.33 391.675 1127.16 392.125 1126.81 392.475C1126.46 392.825 1126.01 393 1125.46 393H1116.98ZM1200.5 393.75C1195.95 393.75 1192.02 393 1188.72 391.5C1185.42 390 1182.85 387.75 1181 384.75C1179.15 381.7 1178.15 377.875 1178 373.275C1177.95 371.125 1177.92 369 1177.92 366.9C1177.92 364.75 1177.95 362.575 1178 360.375C1178.15 355.875 1179.15 352.1 1181 349.05C1182.9 345.95 1185.5 343.625 1188.8 342.075C1192.15 340.525 1196.05 339.75 1200.5 339.75C1204.9 339.75 1208.75 340.525 1212.05 342.075C1215.4 343.625 1218.02 345.95 1219.92 349.05C1221.82 352.1 1222.82 355.875 1222.92 360.375C1223.02 362.575 1223.07 364.75 1223.07 366.9C1223.07 369 1223.02 371.125 1222.92 373.275C1222.77 377.875 1221.77 381.7 1219.92 384.75C1218.07 387.75 1215.5 390 1212.2 391.5C1208.9 393 1205 393.75 1200.5 393.75ZM1200.5 384.075C1203.4 384.075 1205.77 383.2 1207.62 381.45C1209.52 379.65 1210.52 376.8 1210.62 372.9C1210.72 370.7 1210.77 368.65 1210.77 366.75C1210.77 364.8 1210.72 362.75 1210.62 360.6C1210.57 358 1210.1 355.875 1209.2 354.225C1208.3 352.575 1207.1 351.375 1205.6 350.625C1204.15 349.825 1202.45 349.425 1200.5 349.425C1198.55 349.425 1196.82 349.825 1195.32 350.625C1193.82 351.375 1192.62 352.575 1191.72 354.225C1190.87 355.875 1190.4 358 1190.3 360.6C1190.25 362.75 1190.22 364.8 1190.22 366.75C1190.22 368.65 1190.25 370.7 1190.3 372.9C1190.45 376.8 1191.45 379.65 1193.3 381.45C1195.15 383.2 1197.55 384.075 1200.5 384.075ZM1275.51 393C1274.96 393 1274.51 392.825 1274.16 392.475C1273.81 392.125 1273.63 391.675 1273.63 391.125V342.375C1273.63 341.825 1273.81 341.375 1274.16 341.025C1274.51 340.675 1274.96 340.5 1275.51 340.5H1282.33C1283.08 340.5 1283.63 340.675 1283.98 341.025C1284.33 341.375 1284.56 341.65 1284.66 341.85L1304.68 373.125V342.375C1304.68 341.825 1304.86 341.375 1305.21 341.025C1305.56 340.675 1305.98 340.5 1306.48 340.5H1314.13C1314.68 340.5 1315.13 340.675 1315.48 341.025C1315.83 341.375 1316.01 341.825 1316.01 342.375V391.125C1316.01 391.625 1315.83 392.075 1315.48 392.475C1315.13 392.825 1314.68 393 1314.13 393H1307.23C1306.48 393 1305.93 392.825 1305.58 392.475C1305.28 392.075 1305.06 391.8 1304.91 391.65L1284.96 361.35V391.125C1284.96 391.675 1284.78 392.125 1284.43 392.475C1284.08 392.825 1283.63 393 1283.08 393H1275.51ZM1370.22 393C1369.67 393 1369.22 392.825 1368.87 392.475C1368.52 392.125 1368.35 391.675 1368.35 391.125V342.375C1368.35 341.825 1368.52 341.375 1368.87 341.025C1369.22 340.675 1369.67 340.5 1370.22 340.5H1404.2C1404.75 340.5 1405.2 340.675 1405.55 341.025C1405.9 341.375 1406.07 341.825 1406.07 342.375V348.375C1406.07 348.875 1405.9 349.3 1405.55 349.65C1405.2 350 1404.75 350.175 1404.2 350.175H1379.9V361.95H1402.55C1403.1 361.95 1403.55 362.125 1403.9 362.475C1404.25 362.825 1404.42 363.275 1404.42 363.825V369.375C1404.42 369.875 1404.25 370.3 1403.9 370.65C1403.55 371 1403.1 371.175 1402.55 371.175H1379.9V383.325H1404.8C1405.35 383.325 1405.8 383.5 1406.15 383.85C1406.5 384.2 1406.67 384.65 1406.67 385.2V391.125C1406.67 391.675 1406.5 392.125 1406.15 392.475C1405.8 392.825 1405.35 393 1404.8 393H1370.22ZM1475.74 393.75C1470.94 393.75 1466.91 393.05 1463.66 391.65C1460.46 390.25 1458.04 388.425 1456.39 386.175C1454.74 383.925 1453.86 381.525 1453.76 378.975C1453.76 378.575 1453.91 378.225 1454.21 377.925C1454.51 377.575 1454.89 377.4 1455.34 377.4H1463.36C1464.01 377.4 1464.51 377.55 1464.86 377.85C1465.21 378.1 1465.54 378.425 1465.84 378.825C1466.19 379.675 1466.74 380.5 1467.49 381.3C1468.29 382.1 1469.36 382.775 1470.71 383.325C1472.06 383.825 1473.74 384.075 1475.74 384.075C1478.99 384.075 1481.41 383.55 1483.01 382.5C1484.66 381.45 1485.49 380.025 1485.49 378.225C1485.49 376.925 1485.04 375.875 1484.14 375.075C1483.29 374.275 1481.91 373.55 1480.01 372.9C1478.16 372.25 1475.69 371.55 1472.59 370.8C1468.84 370 1465.64 368.975 1462.99 367.725C1460.39 366.425 1458.41 364.775 1457.06 362.775C1455.76 360.725 1455.11 358.2 1455.11 355.2C1455.11 352.2 1455.94 349.55 1457.59 347.25C1459.24 344.9 1461.56 343.075 1464.56 341.775C1467.56 340.425 1471.14 339.75 1475.29 339.75C1478.64 339.75 1481.59 340.2 1484.14 341.1C1486.74 342 1488.89 343.175 1490.59 344.625C1492.34 346.075 1493.66 347.625 1494.56 349.275C1495.46 350.925 1495.94 352.525 1495.99 354.075C1495.99 354.475 1495.84 354.85 1495.54 355.2C1495.24 355.5 1494.86 355.65 1494.41 355.65H1486.01C1485.51 355.65 1485.06 355.55 1484.66 355.35C1484.26 355.15 1483.94 354.8 1483.69 354.3C1483.39 353 1482.49 351.875 1480.99 350.925C1479.54 349.925 1477.64 349.425 1475.29 349.425C1472.84 349.425 1470.89 349.875 1469.44 350.775C1468.04 351.675 1467.34 353.05 1467.34 354.9C1467.34 356.1 1467.69 357.125 1468.39 357.975C1469.14 358.775 1470.36 359.5 1472.06 360.15C1473.81 360.75 1476.11 361.425 1478.96 362.175C1483.36 363.075 1486.94 364.15 1489.69 365.4C1492.44 366.65 1494.46 368.275 1495.76 370.275C1497.06 372.225 1497.71 374.7 1497.71 377.7C1497.71 381.05 1496.76 383.925 1494.86 386.325C1493.01 388.725 1490.44 390.575 1487.14 391.875C1483.89 393.125 1480.09 393.75 1475.74 393.75ZM1628.74 375.225C1630.29 375.525 1631.72 376.075 1633.02 376.875C1634.32 377.625 1635.42 378.6 1636.32 379.8C1637.27 380.95 1637.99 382.3 1638.49 383.85C1638.99 385.35 1639.24 386.975 1639.24 388.725C1639.24 391.075 1638.77 393.175 1637.82 395.025C1636.87 396.925 1635.49 398.525 1633.69 399.825C1631.94 401.175 1629.82 402.2 1627.32 402.9C1624.82 403.65 1622.02 404.025 1618.92 404.025C1611.32 404.025 1605.37 401.8 1601.07 397.35L1607.52 388.8C1608.87 390.2 1610.39 391.275 1612.09 392.025C1613.84 392.725 1615.92 393.075 1618.32 393.075C1623.97 393.075 1626.79 391 1626.79 386.85C1626.79 384.6 1625.94 382.9 1624.24 381.75C1622.59 380.6 1619.97 380.025 1616.37 380.025H1614.12V371.4H1616.59C1619.39 371.4 1621.57 370.825 1623.12 369.675C1624.72 368.525 1625.52 367 1625.52 365.1C1625.52 363.45 1624.94 362.2 1623.79 361.35C1622.64 360.5 1621.12 360.075 1619.22 360.075C1617.17 360.075 1615.29 360.575 1613.59 361.575C1611.94 362.525 1610.54 363.9 1609.39 365.7L1601.82 357C1602.62 355.95 1603.67 354.975 1604.97 354.075C1606.27 353.175 1607.74 352.425 1609.39 351.825C1611.04 351.175 1612.82 350.675 1614.72 350.325C1616.62 349.975 1618.57 349.8 1620.57 349.8C1623.22 349.8 1625.64 350.125 1627.84 350.775C1630.04 351.375 1631.92 352.275 1633.47 353.475C1635.02 354.625 1636.22 356.025 1637.07 357.675C1637.92 359.275 1638.34 361.075 1638.34 363.075C1638.34 364.575 1638.09 366 1637.59 367.35C1637.14 368.7 1636.49 369.925 1635.64 371.025C1634.79 372.125 1633.77 373.05 1632.57 373.8C1631.42 374.5 1630.14 374.975 1628.74 375.225ZM1688.32 393V339.75H1708.19C1712.59 339.75 1716.44 340.45 1719.74 341.85C1723.04 343.25 1725.79 345.15 1727.99 347.55C1730.24 349.95 1731.92 352.775 1733.02 356.025C1734.17 359.225 1734.74 362.65 1734.74 366.3C1734.74 370.35 1734.12 374.025 1732.87 377.325C1731.62 380.575 1729.82 383.375 1727.47 385.725C1725.17 388.025 1722.37 389.825 1719.07 391.125C1715.82 392.375 1712.19 393 1708.19 393H1688.32ZM1722.22 366.3C1722.22 363.95 1721.89 361.825 1721.24 359.925C1720.64 357.975 1719.74 356.3 1718.54 354.9C1717.34 353.5 1715.87 352.425 1714.12 351.675C1712.37 350.925 1710.39 350.55 1708.19 350.55H1700.62V382.2H1708.19C1710.44 382.2 1712.44 381.8 1714.19 381C1715.94 380.2 1717.39 379.1 1718.54 377.7C1719.74 376.25 1720.64 374.575 1721.24 372.675C1721.89 370.725 1722.22 368.6 1722.22 366.3Z" fill="black"/>
<path d="M581.5 306.5H1750" stroke="black" stroke-width="5"/>
</svg>
